<?xml version="1.0" encoding="UTF-8"?>
<svg width="960px" height="960px" viewBox="0 0 960 960" version="1.1" xmlns="http://www.w3.org/2000/svg" xmlns:xlink="http://www.w3.org/1999/xlink">
    <!-- Generator: Sketch 60 (88103) - https://sketch.com -->
    <title>icon</title>
    <desc>Created with Sketch.</desc>
    <g id="icon" stroke="none" stroke-width="1" fill="none" fill-rule="evenodd">
        <g id="Group-12" transform="translate(0.000000, 358.000000)" fill="#000000">
            <path d="M83.2205948,53.7249294 L74.4949278,53.7249294 C57.7432434,53.7222713 40.9942193,53.6132914 24.2451951,53.7568259 C14.4979866,53.8418834 7.18225977,49.735201 2.90189448,41.2081867 C-1.43433636,32.5721925 -0.976770899,23.9335402 4.71885501,15.6909369 C8.81034153,9.76880849 14.4660635,6.96988515 21.3348659,6.11931016 C22.9097424,5.92527274 24.5218626,6.02627852 26.1180212,6.02627852 C81.4169356,6.02362047 136.71851,6.00501414 192.020085,6.06880727 C195.156537,6.07146532 198.476546,6.20170961 201.397517,7.19050304 C211.142065,10.4864811 216.984005,19.2394294 217,29.7785852 C217.015928,40.3709019 211.267097,49.1291663 201.562453,52.4942537 C198.649464,53.5043115 195.332114,53.650504 192.195662,53.6717684 C175.712665,53.7807483 159.229667,53.7249294 142.744009,53.7249294 L134.244464,53.7249294 C134.116772,57.2016546 133.925233,60.0351326 133.925233,62.8686105 C133.906611,113.608067 133.866707,164.347523 133.959816,215.08698 C133.973117,222.635833 131.895451,229.211841 126.524377,234.527935 C118.729803,242.249561 109.378974,243.804518 99.3870211,240.03275 C89.5972484,236.338064 84.2687389,228.81845 83.2764603,218.372326 C83.0742803,216.264495 83.2205948,214.124767 83.2205948,211.998329 C83.2205948,162.590554 83.2205948,113.177463 83.2205948,63.7670304 L83.2205948,53.7249294 Z" id="Fill-1"></path>
            <path d="M959.960647,51.7437165 C959.960647,43.767587 960.088446,35.7887978 959.883435,27.8179875 C959.806224,24.9722194 959.377565,21.9615563 958.323225,19.3391942 C954.204378,9.10240778 946.129094,4.56247676 934.539344,4.13694134 C921.000663,3.63693722 909.759697,16.0226776 910.470578,27.4828784 C910.635651,30.1318363 910.459928,32.7994115 910.459928,35.4563483 C910.457265,71.8768611 910.481227,108.300034 910.401353,144.717887 C910.396028,146.824287 911.500955,149.467926 909.024854,151.069003 C908.244749,150.723255 907.61108,150.646127 907.323533,150.287082 C892.075544,131.398628 877.698183,111.858573 862.053485,93.23342 C841.943818,69.2997122 823.854968,43.6718415 804.839578,18.8179134 C802.914609,16.296616 800.800605,13.8497873 798.431003,11.7513658 C789.501064,3.83108776 778.957667,2.52788553 767.849825,5.38429204 C757.556699,8.03059044 751.02565,18.4269527 751.020325,31.4031234 C751,92.5472442 750.951101,153.694024 751.140137,214.838145 C751.153449,219.181266 752.436762,223.739814 754.071521,227.822295 C760.858167,244.774562 785.661777,247.130964 796.59922,231.596262 C800.406558,226.181324 801.620647,220.128082 801.604672,213.588135 C801.52746,176.635703 801.57006,139.683271 801.57006,102.728179 L801.57006,93.5871463 L897.506991,214.54027 C900.078941,217.864766 902.656216,221.189261 905.222841,224.516416 C912.049425,233.354255 919.887749,240.17346 931.767708,241.49262 C943.45597,242.790503 957.268886,233.878196 959.531989,222.388739 C960.139033,219.298288 959.944672,216.032304 959.944672,212.846108 C959.965972,159.146197 959.960647,105.443627 959.960647,51.7437165" id="Fill-4"></path>
            <path d="M602.5,197.676174 C560.98225,197.676174 527.323311,164.01687 527.323311,122.498668 C527.323311,80.9804668 560.98225,47.3211626 602.5,47.3211626 C644.01775,47.3211626 677.676689,80.9804668 677.676689,122.498668 C677.676689,164.01687 644.01775,197.676174 602.5,197.676174 M602.5,0 C534.846573,0 480,54.8445058 480,122.498668 C480,190.152831 534.846573,245 602.5,245 C670.153427,245 725,190.152831 725,122.498668 C725,54.8445058 670.153427,0 602.5,0" id="Fill-6"></path>
            <path d="M334.498668,197.676174 C292.980467,197.676174 259.321163,164.01687 259.321163,122.498668 C259.321163,80.9804668 292.980467,47.3211626 334.498668,47.3211626 C376.01687,47.3211626 409.676174,80.9804668 409.676174,122.498668 C409.676174,164.01687 376.01687,197.676174 334.498668,197.676174 M334.498668,0 C266.844506,0 212,54.8445058 212,122.498668 C212,190.152831 266.844506,245 334.498668,245 C402.152831,245 457,190.152831 457,122.498668 C457,54.8445058 402.152831,0 334.498668,0" id="Fill-9"></path>
        </g>
    </g>
</svg>